<?xml version="1.0" encoding="UTF-8"?>
<svg width="501px" height="99px" viewBox="0 0 501 99" version="1.1" xmlns="http://www.w3.org/2000/svg" xmlns:xlink="http://www.w3.org/1999/xlink">
    <!-- Generator: Sketch 50.2 (55047) - http://www.bohemiancoding.com/sketch -->
    <title>ArtisaN</title>
    <desc>Created with Sketch.</desc>
    <defs></defs>
    <g id="Page-1" stroke="none" stroke-width="1" fill="none" fill-rule="evenodd">
        <g id="Artboard-7" transform="translate(-12.000000, -75.000000)" fill="#FFFFFF">
            <path d="M51.008382,172.108895 L40.1574588,172.108895 L31.504191,105.904528 L22.8509232,172.108895 L12,172.108895 L26.5594665,75.9614742 L31.9162514,75.9614742 C36.0368551,75.9614742 36.7236224,78.5711899 37.1356828,81.1809056 L51.008382,172.108895 Z M125.59131,172.108895 L115.701861,172.108895 L115.701861,136.946409 C115.701861,132.276392 113.229498,130.765504 110.619783,130.765504 L105.400351,130.765504 L105.400351,172.108895 L95.5109023,172.108895 L95.5109023,75.9614742 L113.504205,75.9614742 C120.097171,75.9614742 125.59131,81.3182591 125.59131,88.0485785 L125.59131,117.716925 C125.59131,117.716925 126.00337,125.271366 122.02012,126.23284 C125.866016,128.155788 125.59131,135.298168 125.59131,135.298168 L125.59131,172.108895 Z M105.400351,121.425469 L110.619783,121.425469 C113.229498,121.425469 115.701861,120.326641 115.701861,115.93133 L115.701861,90.1088804 C115.701861,86.5376905 113.229498,85.1641559 110.619783,85.1641559 L105.400351,85.1641559 L105.400351,121.425469 Z M212.536048,75.9614742 L209.239565,83.103854 C208.690151,84.3400351 207.179263,85.7135697 204.020134,85.7135697 L196.32834,85.7135697 C194.954806,85.7135697 193.993332,86.8123974 193.855978,88.0485785 L193.855978,172.108895 L186.850952,172.108895 C184.515943,172.108895 184.103883,170.73536 184.103883,170.048593 L184.103883,85.7135697 L170.231183,85.7135697 L170.231183,78.9832503 C170.231183,77.3350088 171.604718,75.9614742 173.252959,75.9614742 L212.536048,75.9614742 Z M256.901215,75.9614742 L262.807414,75.9614742 C265.691836,75.9614742 266.790664,78.1591295 266.790664,79.807371 L266.790664,172.108895 L259.785638,172.108895 C257.450629,172.108895 257.038569,170.73536 256.901215,170.048593 L256.901215,75.9614742 Z M349.889506,96.8391998 C349.065385,97.2512602 345.219488,99.0368551 342.609773,100.135683 L342.609773,89.0100527 C342.609773,85.9882766 340.274764,83.6532678 337.390341,83.6532678 C334.505919,83.6532678 332.17091,85.9882766 332.17091,89.0100527 L332.17091,98.2127344 C332.17091,103.844226 336.428867,111.123959 336.428867,111.123959 L348.241265,133.37522 C353.048636,142.165841 352.636575,148.621453 352.636575,148.621453 L352.636575,160.845911 C352.636575,167.576231 347.142437,173.070369 340.274764,173.070369 L334.093858,173.070369 C327.500892,172.795662 322.281461,167.438877 322.144108,160.845911 L322.144108,150.956462 C322.144108,147.797333 323.654996,146.286445 324.891177,145.599677 C325.715297,145.32497 329.698548,143.539375 332.17091,142.440548 L332.17091,159.19767 C332.17091,162.082092 334.505919,164.417101 337.390341,164.417101 C340.274764,164.417101 342.609773,162.082092 342.609773,159.060316 L342.609773,148.07204 C342.609773,142.440548 338.351816,135.023461 338.351816,135.023461 L326.539418,112.909554 C321.732047,104.118933 322.144108,97.6633205 322.144108,97.6633205 L322.144108,87.7738716 C322.144108,81.0435521 327.638246,75 334.505919,75 L340.686824,75 C347.27979,75.1373535 352.636575,81.1809056 352.636575,87.7738716 L352.636575,91.4824149 C352.636575,94.6415445 351.125687,96.1524325 349.889506,96.8391998 Z M436.559538,172.108895 L425.708615,172.108895 L417.055347,105.904528 L408.402079,172.108895 L397.551156,172.108895 L412.110622,75.9614742 L417.467407,75.9614742 C421.588011,75.9614742 422.274778,78.5711899 422.686839,81.1809056 L436.559538,172.108895 Z M512.516,75.9614742 L512.516,172.108895 L507.983336,172.108895 C502.626551,172.108895 501.80243,167.850937 501.39037,165.927989 L490.814154,118.403693 L490.814154,172.108895 L480.924705,172.108895 L480.924705,75.9614742 L485.457369,75.9614742 C490.951507,75.9614742 491.912981,78.5711899 492.462395,81.3182591 L502.626551,131.314918 L502.626551,75.9614742 L512.516,75.9614742 Z" id="ArtisaN"></path>
        </g>
    </g>
</svg>