<?xml version="1.0" encoding="UTF-8"?>
<svg width="501px" height="99px" viewBox="0 0 501 99" version="1.1" xmlns="http://www.w3.org/2000/svg" xmlns:xlink="http://www.w3.org/1999/xlink">
    <!-- Generator: Sketch 61.2 (89653) - https://sketch.com -->
    <title>1logo</title>
    <desc>Created with Sketch.</desc>
    <g id="Page-1" stroke="none" stroke-width="1" fill="none" fill-rule="evenodd">
        <g id="1logo" fill="#FAC104" fill-rule="nonzero">
            <path d="M39.008382,97.108895 L28.1574588,97.108895 L19.504191,30.904528 L10.8509232,97.108895 L0,97.108895 L14.5594665,0.9614742 L19.9162514,0.9614742 C24.0368551,0.9614742 24.7236224,3.5711899 25.1356828,6.1809056 L39.008382,97.108895 Z M113.59131,97.108895 L103.701861,97.108895 L103.701861,61.946409 C103.701861,57.276392 101.229498,55.765504 98.619783,55.765504 L93.400351,55.765504 L93.400351,97.108895 L83.5109023,97.108895 L83.5109023,0.9614742 L101.504205,0.9614742 C108.097171,0.9614742 113.59131,6.3182591 113.59131,13.0485785 L113.59131,42.716925 C113.59131,42.716925 114.00337,50.271366 110.02012,51.23284 C113.866016,53.155788 113.59131,60.298168 113.59131,60.298168 L113.59131,97.108895 Z M93.400351,46.425469 L98.619783,46.425469 C101.229498,46.425469 103.701861,45.326641 103.701861,40.93133 L103.701861,15.1088804 C103.701861,11.5376905 101.229498,10.1641559 98.619783,10.1641559 L93.400351,10.1641559 L93.400351,46.425469 Z M200.536048,0.9614742 L197.239565,8.103854 C196.690151,9.3400351 195.179263,10.7135697 192.020134,10.7135697 L184.32834,10.7135697 C182.954806,10.7135697 181.993332,11.8123974 181.855978,13.0485785 L181.855978,97.108895 L174.850952,97.108895 C172.515943,97.108895 172.103883,95.73536 172.103883,95.048593 L172.103883,10.7135697 L158.231183,10.7135697 L158.231183,3.9832503 C158.231183,2.3350088 159.604718,0.9614742 161.252959,0.9614742 L200.536048,0.9614742 Z M244.901215,0.9614742 L250.807414,0.9614742 C253.691836,0.9614742 254.790664,3.1591295 254.790664,4.807371 L254.790664,97.108895 L247.785638,97.108895 C245.450629,97.108895 245.038569,95.73536 244.901215,95.048593 L244.901215,0.9614742 Z M337.889506,21.8391998 C337.065385,22.2512602 333.219488,24.0368551 330.609773,25.135683 L330.609773,14.0100527 C330.609773,10.9882766 328.274764,8.6532678 325.390341,8.6532678 C322.505919,8.6532678 320.17091,10.9882766 320.17091,14.0100527 L320.17091,23.2127344 C320.17091,28.844226 324.428867,36.123959 324.428867,36.123959 L336.241265,58.37522 C341.048636,67.165841 340.636575,73.621453 340.636575,73.621453 L340.636575,85.845911 C340.636575,92.576231 335.142437,98.070369 328.274764,98.070369 L322.093858,98.070369 C315.500892,97.795662 310.281461,92.438877 310.144108,85.845911 L310.144108,75.956462 C310.144108,72.797333 311.654996,71.286445 312.891177,70.599677 C313.715297,70.32497 317.698548,68.539375 320.17091,67.440548 L320.17091,84.19767 C320.17091,87.082092 322.505919,89.417101 325.390341,89.417101 C328.274764,89.417101 330.609773,87.082092 330.609773,84.060316 L330.609773,73.07204 C330.609773,67.440548 326.351816,60.023461 326.351816,60.023461 L314.539418,37.909554 C309.732047,29.118933 310.144108,22.6633205 310.144108,22.6633205 L310.144108,12.7738716 C310.144108,6.0435521 315.638246,0 322.505919,0 L328.686824,0 C335.27979,0.1373535 340.636575,6.1809056 340.636575,12.7738716 L340.636575,16.4824149 C340.636575,19.6415445 339.125687,21.1524325 337.889506,21.8391998 Z M424.559538,97.108895 L413.708615,97.108895 L405.055347,30.904528 L396.402079,97.108895 L385.551156,97.108895 L400.110622,0.9614742 L405.467407,0.9614742 C409.588011,0.9614742 410.274778,3.5711899 410.686839,6.1809056 L424.559538,97.108895 Z M500.516,0.9614742 L500.516,97.108895 L495.983336,97.108895 C490.626551,97.108895 489.80243,92.850937 489.39037,90.927989 L478.814154,43.403693 L478.814154,97.108895 L468.924705,97.108895 L468.924705,0.9614742 L473.457369,0.9614742 C478.951507,0.9614742 479.912981,3.5711899 480.462395,6.3182591 L490.626551,56.314918 L490.626551,0.9614742 L500.516,0.9614742 Z" id="ArtisaN"></path>
        </g>
    </g>
</svg>